<?xml version="1.0" standalone="no"?>
<!DOCTYPE svg PUBLIC "-//W3C//DTD SVG 20010904//EN"
 "http://www.w3.org/TR/2001/REC-SVG-20010904/DTD/svg10.dtd">
<svg version="1.0" xmlns="http://www.w3.org/2000/svg"
 width="1040.000000pt" height="216.000000pt" viewBox="0 0 1040.000000 216.000000"
 preserveAspectRatio="xMidYMid meet">
<metadata>
Created by potrace 1.15, written by Peter Selinger 2001-2017
</metadata>
<g transform="translate(0.000000,216.000000) scale(0.100000,-0.100000)"
fill="#000000" stroke="none">
<path d="M1472 2141 c-46 -22 -67 -59 -57 -98 7 -29 41 -43 105 -43 30 0 50
-5 53 -13 11 -28 -17 -152 -60 -264 -47 -125 -86 -251 -118 -381 -36 -144 -38
-146 -68 -86 -13 27 -30 67 -37 89 -52 163 -209 413 -356 567 -196 207 -356
270 -487 192 -22 -13 -26 -79 -6 -99 8 -8 45 -16 91 -19 91 -6 125 -22 162
-80 51 -79 54 -140 11 -276 -8 -25 -33 -106 -56 -180 -128 -418 -190 -561
-280 -647 -63 -60 -130 -66 -169 -16 -33 42 -26 69 35 131 30 31 55 65 55 75
0 26 -63 87 -89 87 -73 0 -169 -113 -192 -226 -11 -55 -10 -64 12 -119 41
-101 140 -147 269 -123 70 13 114 36 188 97 70 58 117 120 166 217 58 116 79
183 167 524 11 41 23 78 28 83 4 4 26 -32 48 -81 48 -104 196 -506 248 -677
30 -94 45 -127 70 -152 38 -38 49 -40 92 -13 81 49 129 185 203 570 23 118 48
229 56 248 8 19 14 41 14 48 0 24 48 119 70 139 l22 20 30 -35 c92 -110 215
-476 257 -772 19 -127 43 -206 71 -223 17 -10 49 14 69 53 29 58 57 164 90
338 34 176 36 211 20 300 -12 68 -217 513 -281 612 -63 97 -169 182 -275 222
-83 31 -122 33 -171 11z"/>
<path d="M6862 1652 c-40 -6 -47 -41 -28 -132 22 -101 22 -263 1 -385 -23
-126 -23 -257 0 -328 25 -80 84 -177 124 -204 45 -31 86 -29 147 6 96 55 184
172 339 444 15 27 31 45 35 40 5 -4 18 -62 30 -128 33 -195 92 -285 226 -351
134 -66 266 -3 293 139 14 79 -26 136 -101 142 -54 4 -73 -6 -87 -47 -11 -31
-10 -35 19 -59 33 -28 39 -53 14 -63 -46 -18 -76 6 -94 75 -11 41 -12 86 -10
409 1 244 -6 312 -40 367 -26 43 -79 59 -139 43 -61 -16 -85 -45 -109 -130
-82 -286 -160 -446 -269 -553 -51 -51 -61 -50 -90 7 -11 22 -15 58 -14 133 0
57 3 108 6 113 3 5 6 46 6 92 1 102 -15 141 -99 255 -64 86 -115 123 -160 115z"/>
<path d="M8173 1650 c-49 -11 -95 -43 -116 -77 -15 -26 -16 -39 -8 -69 25 -92
86 -99 131 -15 15 28 31 26 63 -7 58 -61 63 -173 17 -402 -35 -171 -35 -219 1
-295 32 -67 115 -154 174 -182 95 -44 168 -26 354 87 l121 73 47 -44 c27 -24
66 -59 88 -79 149 -132 163 -155 129 -223 -25 -49 -44 -66 -80 -73 -43 -8 -96
18 -195 93 -102 77 -147 96 -218 90 -139 -11 -228 -95 -246 -233 -17 -122 60
-232 195 -281 68 -25 127 -10 168 42 17 21 19 31 11 55 -15 43 -40 59 -105 70
-79 14 -114 29 -116 49 -8 92 53 160 131 146 23 -4 71 -33 134 -81 122 -94
174 -118 233 -109 164 24 332 348 241 466 -7 9 -48 41 -92 71 -44 30 -88 69
-99 87 -20 35 -20 45 19 326 24 173 18 263 -25 343 -59 111 -185 176 -274 142
-39 -14 -42 -50 -10 -117 15 -32 30 -72 34 -89 7 -28 -8 -229 -24 -324 -3 -19
-8 -68 -11 -108 -5 -84 -21 -113 -92 -167 -61 -47 -116 -62 -149 -41 -57 38
-70 105 -50 256 20 144 20 183 1 275 -29 137 -120 278 -206 319 -27 12 -138
40 -143 35 0 -1 -15 -4 -33 -9z"/>
<path d="M3880 1629 c-57 -35 -153 -140 -181 -199 -16 -33 -38 -112 -53 -195
-57 -298 -68 -349 -87 -391 -27 -64 -61 -94 -104 -94 -19 0 -35 2 -35 4 0 3
11 26 25 52 14 26 25 55 25 65 0 33 -42 70 -86 76 -38 5 -43 3 -67 -28 -60
-80 -49 -241 21 -303 13 -11 43 -21 71 -24 101 -9 233 82 300 207 38 72 66
207 75 361 8 132 14 164 39 218 18 39 59 82 78 82 17 0 62 -73 85 -136 22 -59
39 -169 80 -514 12 -107 50 -195 90 -210 37 -14 64 -12 64 5 0 8 4 15 8 15 18
0 88 79 116 130 33 63 40 146 19 225 -8 28 -16 62 -18 77 -7 48 -74 219 -135
345 -62 127 -137 221 -195 243 -42 16 -97 12 -135 -11z"/>
<path d="M2895 1632 c-197 -20 -414 -188 -498 -385 -25 -58 -31 -86 -30 -142
0 -120 69 -262 181 -378 134 -137 287 -175 430 -106 60 29 215 183 236 233 19
46 15 63 -17 75 -43 16 -77 0 -139 -65 -74 -77 -114 -98 -178 -92 -54 5 -92
29 -117 76 -13 24 -15 36 -7 50 6 9 69 61 140 115 267 201 353 299 361 411 3
49 0 67 -16 93 -47 75 -209 129 -346 115z m42 -164 c55 -55 35 -175 -47 -283
-43 -56 -172 -165 -195 -165 -21 0 -48 86 -53 167 -6 107 23 196 84 259 46 47
65 54 137 50 36 -3 55 -10 74 -28z"/>
<path d="M6276 1633 c-53 -14 -66 -53 -66 -200 l0 -129 -30 -17 c-16 -10 -30
-22 -30 -27 0 -5 -17 -12 -37 -15 -62 -10 -156 -25 -185 -31 -36 -7 -45 13
-54 117 -8 101 -43 212 -80 250 -31 32 -77 54 -99 46 -32 -13 -85 -180 -100
-317 -13 -126 -13 -383 1 -463 14 -80 41 -157 56 -157 4 0 8 -6 8 -13 0 -7 9
-22 20 -33 45 -45 51 -47 89 -38 57 14 62 31 113 359 6 39 14 77 19 87 13 25
124 56 214 60 l80 3 0 -100 c0 -55 5 -107 10 -115 5 -8 11 -22 12 -31 5 -32
95 -175 131 -207 52 -49 90 -65 156 -68 54 -3 63 0 112 34 52 36 62 52 78 122
8 38 -25 85 -69 100 -44 15 -46 12 -65 -66 -7 -30 -19 -54 -25 -54 -7 0 -20
16 -30 36 -18 38 -19 78 -16 369 1 77 -1 160 -5 185 -12 92 -56 255 -73 267
-21 16 -99 53 -108 52 -5 -1 -17 -4 -27 -6z"/>
<path d="M9780 1622 c-14 -2 -54 -13 -89 -25 -150 -51 -253 -214 -175 -276 33
-26 96 -28 115 -5 8 9 21 46 29 83 12 52 21 68 40 78 34 17 95 16 131 -3 34
-17 67 -79 71 -134 3 -32 1 -34 -97 -84 -148 -76 -226 -129 -294 -202 -106
-112 -152 -225 -136 -329 13 -89 107 -155 218 -155 122 0 203 35 347 151 56
45 102 80 104 78 1 -2 13 -22 27 -44 83 -139 228 -213 303 -154 14 11 26 28
26 38 0 18 -37 56 -82 84 -32 20 -32 19 -62 349 -23 250 -25 258 -57 318 -63
119 -202 215 -328 228 -36 4 -77 6 -91 4z m188 -530 c31 -124 29 -153 -10
-198 -74 -85 -197 -139 -260 -115 -58 22 -72 109 -32 191 27 54 119 136 197
175 38 19 73 35 77 35 4 0 17 -40 28 -88z"/>
<path d="M4698 1610 c-11 -7 -19 -30 -24 -68 -9 -72 -17 -94 -62 -162 -44 -66
-46 -94 -20 -290 5 -41 12 -82 15 -90 3 -8 7 -22 8 -30 15 -121 45 -235 71
-275 41 -63 144 -100 275 -99 125 1 183 22 261 95 34 32 65 59 69 59 8 0 109
148 109 161 0 5 9 28 19 50 43 87 49 191 15 236 -32 42 -48 50 -120 61 -55 9
-150 -1 -179 -19 -5 -4 -26 -10 -45 -14 -19 -4 -46 -13 -60 -21 -80 -42 -134
-64 -141 -57 -5 5 -11 48 -13 96 -15 280 -84 421 -178 367z m457 -537 c13 -10
34 -35 46 -57 17 -31 21 -48 16 -91 -3 -29 -14 -66 -23 -82 -28 -43 -77 -93
-91 -93 -7 0 -13 -4 -13 -9 0 -5 -23 -14 -50 -21 -61 -15 -100 -2 -131 42 -19
26 -21 40 -17 122 4 102 20 140 64 156 14 6 32 17 40 25 9 8 26 15 39 15 13 0
27 5 31 11 9 14 58 4 89 -18z"/>
</g>
</svg>
