<?xml version="1.0" standalone="no"?>
<!DOCTYPE svg PUBLIC "-//W3C//DTD SVG 20010904//EN"
 "http://www.w3.org/TR/2001/REC-SVG-20010904/DTD/svg10.dtd">
<svg version="1.0" xmlns="http://www.w3.org/2000/svg"
 width="242.000000pt" height="242.000000pt" viewBox="0 0 242.000000 242.000000"
 preserveAspectRatio="xMidYMid meet">
<metadata>
Created by potrace 1.15, written by Peter Selinger 2001-2017
</metadata>
<g transform="translate(0.000000,242.000000) scale(0.100000,-0.100000)"
fill="#fe0000" stroke="none">
<path d="M1670 2399 c-113 -25 -284 -28 -368 -6 -35 10 -68 17 -73 17 -5 0 -9
-63 -9 -145 0 -87 4 -145 10 -145 5 0 19 31 30 69 l21 69 87 -1 c101 -1 176
18 272 69 63 33 146 95 125 92 -5 0 -48 -9 -95 -19z"/>
<path d="M2130 2151 c-79 -24 -171 -94 -340 -256 -146 -141 -230 -210 -384
-313 -61 -41 -112 -76 -114 -77 -2 -2 8 -26 22 -54 42 -83 31 -142 -34 -176
-25 -13 -34 -13 -68 -1 -89 32 -180 90 -306 195 l-89 75 39 34 c104 92 343
319 348 331 14 31 -8 19 -116 -61 -196 -146 -327 -238 -339 -238 -13 0 -23 7
-362 280 -333 266 -315 253 -326 246 -5 -4 -7 -21 -4 -40 5 -31 -11 -73 -50
-129 -11 -16 -3 -27 68 -93 126 -117 220 -191 350 -275 176 -114 165 -103 130
-122 -36 -19 -184 -139 -184 -150 -1 -5 11 -8 27 -7 74 5 94 0 125 -32 98
-105 113 -279 44 -517 l-21 -74 -130 -104 c-143 -114 -359 -303 -353 -309 2
-2 19 1 38 6 42 13 81 5 105 -21 9 -10 25 -19 35 -19 39 0 106 36 182 97 46
38 76 56 73 46 -31 -99 -57 -335 -38 -347 16 -10 20 3 37 115 16 107 35 189
61 272 15 44 23 52 114 112 178 117 330 251 396 348 23 35 25 42 15 86 -8 37
-5 161 4 161 1 0 21 -19 46 -43 43 -41 81 -62 331 -181 199 -95 333 -192 861
-621 41 -34 58 -43 53 -30 -4 11 -10 41 -13 67 -6 52 6 78 38 78 11 0 19 4 19
8 0 36 -778 712 -819 712 -6 0 -32 -12 -58 -26 -38 -20 -58 -25 -98 -21 -52 4
-155 43 -155 58 0 5 17 17 39 28 59 31 146 115 226 221 132 174 447 451 737
649 110 75 116 91 26 71 -47 -11 -59 -10 -87 4 -17 10 -35 24 -38 32 -6 15
-24 17 -63 5z m-1310 -811 c121 -11 233 -38 226 -55 -11 -31 -170 -249 -232
-318 -133 -152 -172 -192 -178 -186 -3 3 0 25 9 48 8 23 20 79 26 125 19 138
-13 263 -90 345 -18 19 -30 35 -28 38 6 6 121 21 137 17 8 -1 67 -8 130 -14z"/>
<path d="M1037 619 c-108 -57 -207 -277 -207 -461 l0 -58 138 1 137 1 -60 17
c-133 40 -161 69 -152 161 8 75 57 201 101 261 45 60 111 94 168 85 68 -11
109 -41 182 -131 13 -16 27 -27 30 -24 10 10 -103 136 -138 153 -48 23 -151
21 -199 -5z"/>
</g>
</svg>
